# xmcd
#
# Track frame offsets: 
#        150
#        27452
#        46151
#        60389
#        79956
#        103761
#        122568
#        139123
#        154040
#        170266
#        186078
#        203164
#        216981
#
# Disc length: 3110 seconds
#
# Revision: 0
# Processed by: cddbd v1.5.2PL0 Copyright (c) Steve Scherf et al.
# Submitted via: ExactAudioCopyFreeDBPlugin 1.0
#
DISCID=b10c240d
DTITLE=B.T. Express - Non-Stop!
DYEAR=1975
DGENRE=Funk
TTITLE0=Peace Pipe
TTITLE1=Give It What You Got
TTITLE2=Discotizer
TTITLE3=Still Good - Still Like It
TTITLE4=Close To You
TTITLE5=You Got It - I Want It
TTITLE6=Devil's Workshop
TTITLE7=Happiness
TTITLE8=Whatcha Think About That?
TTITLE9=Peace Pipe (Original Single Version)
TTITLE10=Give It What You Got (Original Single Version)
TTITLE11=Close To You (Original Single Version)
TTITLE12=Whatcha Think About That? (Original Single Version)
EXTD=
EXTT0=
EXTT1=
EXTT2=
EXTT3=
EXTT4=
EXTT5=
EXTT6=
EXTT7=
EXTT8=
EXTT9=
EXTT10=
EXTT11=
EXTT12=
PLAYORDER=
